<?xml version="1.0" encoding="utf-8"?>
<!-- Generator: Adobe Illustrator 22.1.0, SVG Export Plug-In . SVG Version: 6.00 Build 0)  -->
<svg version="1.1" id="Capa_1" xmlns="http://www.w3.org/2000/svg" xmlns:xlink="http://www.w3.org/1999/xlink" x="0px" y="0px"
	 viewBox="0 0 114.8 151.2" style="enable-background:new 0 0 114.8 151.2;" xml:space="preserve">
<style type="text/css">
	.st0{clip-path:url(#SVGID_2_);fill:#60605F;}
	.st1{clip-path:url(#SVGID_2_);fill:#FFD45B;}
	.st2{clip-path:url(#SVGID_4_);fill:#60605F;}
	.st3{clip-path:url(#SVGID_6_);fill:#60605F;}
	.st4{clip-path:url(#SVGID_8_);fill:#60605F;}
	.st5{clip-path:url(#SVGID_10_);fill:#60605F;}
	.st6{clip-path:url(#SVGID_12_);fill:#60605F;}
	.st7{clip-path:url(#SVGID_14_);fill:#60605F;}
	.st8{clip-path:url(#SVGID_16_);fill:#60605F;}
	.st9{clip-path:url(#SVGID_18_);fill:#60605F;}
	.st10{clip-path:url(#SVGID_20_);fill:#60605F;}
	.st11{clip-path:url(#SVGID_22_);fill:#60605F;}
	.st12{clip-path:url(#SVGID_24_);fill:#60605F;}
	.st13{clip-path:url(#SVGID_26_);fill:#60605F;}
	.st14{clip-path:url(#SVGID_28_);fill:#60605F;}
	.st15{clip-path:url(#SVGID_30_);fill:#60605F;}
	.st16{clip-path:url(#SVGID_32_);fill:#60605F;}
</style>
<g>
	<g>
		<defs>
			<rect id="SVGID_1_" x="3.6" y="8.9" width="108.1" height="130.6"/>
		</defs>
		<clipPath id="SVGID_2_">
			<use xlink:href="#SVGID_1_"  style="overflow:visible;"/>
		</clipPath>
		<path class="st0" d="M57.7,131.3c-0.4,0-0.9,0-1.3-0.2l-26.2-6.3c-9.3-2.2-15.7-10.5-15.7-20V74.3c0-4.1,2.8-7.6,6.7-8.6l26.9-6.5
			V14.1c0-0.6,0.4-1,1-1s1,0.4,1,1v46.7l-28.4,6.9c-3.1,0.7-5.2,3.5-5.2,6.6v30.6c0,8.6,5.8,16,14.2,18l26.2,6.3
			c0.5,0.1,1.1,0.1,1.6,0l26.2-6.3c8.4-2,14.2-9.4,14.2-18V74.3c0-3.2-2.1-5.9-5.2-6.6l-28.4-6.9V14.1c0-0.6,0.4-1,1-1s1,0.4,1,1
			v45.1l26.9,6.5c4,1,6.7,4.5,6.7,8.6v30.6c0,9.5-6.5,17.7-15.7,20l-26.2,6.3C58.5,131.3,58.1,131.3,57.7,131.3z"/>
		<rect x="45.9" y="8.9" class="st0" width="23.5" height="2"/>
		<path class="st0" d="M57.7,85.4c-5.7,0-10.3-4.6-10.3-10.3c0-5.7,4.6-10.3,10.3-10.3c5.7,0,10.3,4.6,10.3,10.3
			C68,80.8,63.4,85.4,57.7,85.4z M57.7,66.8c-4.6,0-8.3,3.7-8.3,8.3s3.7,8.3,8.3,8.3s8.3-3.7,8.3-8.3S62.3,66.8,57.7,66.8z"/>
		<path class="st0" d="M57.7,77.2c-1,0-1.7-0.8-1.7-1.7s0.8-1.7,1.7-1.7c1,0,1.7,0.8,1.7,1.7S58.6,77.2,57.7,77.2z M57.7,75.2
			c-0.1,0-0.3,0.1-0.3,0.3c0,0.3,0.5,0.3,0.5,0C57.9,75.4,57.8,75.2,57.7,75.2z"/>
		<path class="st0" d="M63.9,76.5H58c-0.6,0-1-0.4-1-1s0.4-1,1-1h5.9c0.6,0,1,0.4,1,1S64.5,76.5,63.9,76.5z"/>
		<path class="st0" d="M54.8,73.7c-0.3,0-0.6-0.1-0.8-0.4l-1.7-2.1c-0.3-0.4-0.3-1.1,0.1-1.4c0.4-0.3,1.1-0.3,1.4,0.1l1.7,2.1
			c0.3,0.4,0.3,1.1-0.1,1.4C55.2,73.6,55,73.7,54.8,73.7z"/>
		<path class="st0" d="M60.5,73.7c-0.2,0-0.4-0.1-0.6-0.2c-0.4-0.4-0.5-1-0.1-1.4l1.7-2.1c0.3-0.4,1-0.5,1.4-0.1
			c0.4,0.4,0.5,1,0.1,1.4l-1.7,2.1C61.1,73.6,60.8,73.7,60.5,73.7z"/>
		<path class="st0" d="M57.7,72.9c-0.6,0-1-0.4-1-1v-2.7c0-0.6,0.4-1,1-1c0.6,0,1,0.4,1,1v2.7C58.7,72.5,58.2,72.9,57.7,72.9z"/>
		<path class="st0" d="M110.7,139.5H69.2c-4.7,0-8.5-3.8-8.5-8.5v-1.4c0-0.6,0.4-1,1-1s1,0.4,1,1v1.4c0,3.6,2.9,6.5,6.5,6.5h41.5
			c0.6,0,1,0.4,1,1S111.2,139.5,110.7,139.5z"/>
		<path class="st0" d="M46.1,139.5H4.6c-0.6,0-1-0.4-1-1s0.4-1,1-1h41.5c3.6,0,6.5-2.9,6.5-6.5v-1.4c0-0.6,0.4-1,1-1s1,0.4,1,1v1.4
			C54.6,135.7,50.8,139.5,46.1,139.5z"/>
		<path class="st1" d="M23.4,92.3v10.7c0,7.3,5,13.7,12.2,15.5l22.1,5.4l22.1-5.4c7.1-1.7,12.2-8.1,12.2-15.5V92.3H23.4z"/>
	</g>
	<g>
		<defs>
			<path id="SVGID_3_" d="M81.7,104.3v8h3.1c2.3-2.1,3.7-4.9,3.9-8H81.7z"/>
		</defs>
		<clipPath id="SVGID_4_">
			<use xlink:href="#SVGID_3_"  style="overflow:visible;"/>
		</clipPath>
		<path class="st2" d="M88.9,112.3c0,0.7-0.5,1.2-1.2,1.2c-0.7,0-1.2-0.5-1.2-1.2s0.5-1.2,1.2-1.2C88.3,111.1,88.9,111.6,88.9,112.3
			"/>
		<path class="st2" d="M90.9,108.3c0,0.7-0.5,1.2-1.2,1.2c-0.7,0-1.2-0.5-1.2-1.2s0.5-1.2,1.2-1.2C90.3,107.1,90.9,107.6,90.9,108.3
			"/>
		<path class="st2" d="M86.9,108.3c0,0.7-0.5,1.2-1.2,1.2c-0.7,0-1.2-0.5-1.2-1.2s0.5-1.2,1.2-1.2C86.3,107.1,86.9,107.6,86.9,108.3
			"/>
		<path class="st2" d="M82.9,108.3c0,0.7-0.5,1.2-1.2,1.2c-0.7,0-1.2-0.5-1.2-1.2s0.5-1.2,1.2-1.2C82.3,107.1,82.9,107.6,82.9,108.3
			"/>
	</g>
	<g>
		<defs>
			<path id="SVGID_5_" d="M26.6,103.1v0.5c0,5.9,4.5,11,11,12.3l20,4.3l20-4.3c6.5-1.4,11-6.5,11-12.3v-0.5H26.6z"/>
		</defs>
		<clipPath id="SVGID_6_">
			<use xlink:href="#SVGID_5_"  style="overflow:visible;"/>
		</clipPath>
		<path class="st3" d="M88.9,120.3c0,0.7-0.5,1.2-1.2,1.2c-0.7,0-1.2-0.5-1.2-1.2s0.5-1.2,1.2-1.2C88.3,119.1,88.9,119.6,88.9,120.3
			"/>
		<path class="st3" d="M84.9,120.3c0,0.7-0.5,1.2-1.2,1.2c-0.7,0-1.2-0.5-1.2-1.2s0.5-1.2,1.2-1.2C84.3,119.1,84.9,119.6,84.9,120.3
			"/>
		<path class="st3" d="M90.9,116.3c0,0.7-0.5,1.2-1.2,1.2c-0.7,0-1.2-0.5-1.2-1.2s0.5-1.2,1.2-1.2C90.3,115.1,90.9,115.6,90.9,116.3
			"/>
		<path class="st3" d="M86.9,116.3c0,0.7-0.5,1.2-1.2,1.2c-0.7,0-1.2-0.5-1.2-1.2s0.5-1.2,1.2-1.2C86.3,115.1,86.9,115.6,86.9,116.3
			"/>
		<path class="st3" d="M82.9,116.3c0,0.7-0.5,1.2-1.2,1.2c-0.7,0-1.2-0.5-1.2-1.2s0.5-1.2,1.2-1.2C82.3,115.1,82.9,115.6,82.9,116.3
			"/>
		<path class="st3" d="M88.9,112.3c0,0.7-0.5,1.2-1.2,1.2c-0.7,0-1.2-0.5-1.2-1.2s0.5-1.2,1.2-1.2C88.3,111.1,88.9,111.6,88.9,112.3
			"/>
		<path class="st3" d="M80.9,112.3c0,0.7-0.5,1.2-1.2,1.2c-0.7,0-1.2-0.5-1.2-1.2s0.5-1.2,1.2-1.2C80.3,111.1,80.9,111.6,80.9,112.3
			"/>
		<path class="st3" d="M76.9,112.3c0,0.7-0.5,1.2-1.2,1.2c-0.7,0-1.2-0.5-1.2-1.2s0.5-1.2,1.2-1.2C76.3,111.1,76.9,111.6,76.9,112.3
			"/>
		<path class="st3" d="M82.9,108.3c0,0.7-0.5,1.2-1.2,1.2c-0.7,0-1.2-0.5-1.2-1.2s0.5-1.2,1.2-1.2C82.3,107.1,82.9,107.6,82.9,108.3
			"/>
		<path class="st3" d="M78.9,108.3c0,0.7-0.5,1.2-1.2,1.2c-0.7,0-1.2-0.5-1.2-1.2s0.5-1.2,1.2-1.2C78.3,107.1,78.9,107.6,78.9,108.3
			"/>
		<path class="st3" d="M74.9,108.3c0,0.7-0.5,1.2-1.2,1.2c-0.7,0-1.2-0.5-1.2-1.2s0.5-1.2,1.2-1.2C74.3,107.1,74.9,107.6,74.9,108.3
			"/>
	</g>
	<g>
		<defs>
			<path id="SVGID_7_" d="M73.7,112.3v4.5l4-0.9c1.4-0.3,2.8-0.8,4-1.4v-2.2H73.7z"/>
		</defs>
		<clipPath id="SVGID_8_">
			<use xlink:href="#SVGID_7_"  style="overflow:visible;"/>
		</clipPath>
		<path class="st4" d="M80.9,120.3c0,0.7-0.5,1.2-1.2,1.2c-0.7,0-1.2-0.5-1.2-1.2s0.5-1.2,1.2-1.2C80.3,119.1,80.9,119.6,80.9,120.3
			"/>
		<path class="st4" d="M76.9,120.3c0,0.7-0.5,1.2-1.2,1.2c-0.7,0-1.2-0.5-1.2-1.2s0.5-1.2,1.2-1.2C76.3,119.1,76.9,119.6,76.9,120.3
			"/>
		<path class="st4" d="M82.9,116.3c0,0.7-0.5,1.2-1.2,1.2c-0.7,0-1.2-0.5-1.2-1.2s0.5-1.2,1.2-1.2C82.3,115.1,82.9,115.6,82.9,116.3
			"/>
		<path class="st4" d="M80.9,112.3c0,0.7-0.5,1.2-1.2,1.2c-0.7,0-1.2-0.5-1.2-1.2s0.5-1.2,1.2-1.2C80.3,111.1,80.9,111.6,80.9,112.3
			"/>
		<path class="st4" d="M76.9,112.3c0,0.7-0.5,1.2-1.2,1.2c-0.7,0-1.2-0.5-1.2-1.2s0.5-1.2,1.2-1.2C76.3,111.1,76.9,111.6,76.9,112.3
			"/>
	</g>
	<g>
		<defs>
			<path id="SVGID_9_" d="M26.6,103.1v0.5c0,5.9,4.5,11,11,12.3l20,4.3l20-4.3c6.5-1.4,11-6.5,11-12.3v-0.5H26.6z"/>
		</defs>
		<clipPath id="SVGID_10_">
			<use xlink:href="#SVGID_9_"  style="overflow:visible;"/>
		</clipPath>
		<path class="st5" d="M72.9,112.3c0,0.7-0.5,1.2-1.2,1.2c-0.7,0-1.2-0.5-1.2-1.2s0.5-1.2,1.2-1.2C72.3,111.1,72.9,111.6,72.9,112.3
			"/>
		<path class="st5" d="M68.9,112.3c0,0.7-0.5,1.2-1.2,1.2c-0.7,0-1.2-0.5-1.2-1.2s0.5-1.2,1.2-1.2C68.3,111.1,68.9,111.6,68.9,112.3
			"/>
		<path class="st5" d="M74.9,108.3c0,0.7-0.5,1.2-1.2,1.2c-0.7,0-1.2-0.5-1.2-1.2s0.5-1.2,1.2-1.2C74.3,107.1,74.9,107.6,74.9,108.3
			"/>
		<path class="st5" d="M70.9,108.3c0,0.7-0.5,1.2-1.2,1.2c-0.7,0-1.2-0.5-1.2-1.2s0.5-1.2,1.2-1.2C70.3,107.1,70.9,107.6,70.9,108.3
			"/>
		<path class="st5" d="M66.9,108.3c0,0.7-0.5,1.2-1.2,1.2c-0.7,0-1.2-0.5-1.2-1.2s0.5-1.2,1.2-1.2C66.3,107.1,66.9,107.6,66.9,108.3
			"/>
	</g>
	<g>
		<defs>
			<polygon id="SVGID_11_" points="65.7,112.3 65.7,118.5 73.7,116.8 73.7,112.3 			"/>
		</defs>
		<clipPath id="SVGID_12_">
			<use xlink:href="#SVGID_11_"  style="overflow:visible;"/>
		</clipPath>
		<path class="st6" d="M72.9,120.3c0,0.7-0.5,1.2-1.2,1.2c-0.7,0-1.2-0.5-1.2-1.2s0.5-1.2,1.2-1.2C72.3,119.1,72.9,119.6,72.9,120.3
			"/>
		<path class="st6" d="M68.9,120.3c0,0.7-0.5,1.2-1.2,1.2c-0.7,0-1.2-0.5-1.2-1.2s0.5-1.2,1.2-1.2C68.3,119.1,68.9,119.6,68.9,120.3
			"/>
		<path class="st6" d="M70.9,116.3c0,0.7-0.5,1.2-1.2,1.2c-0.7,0-1.2-0.5-1.2-1.2s0.5-1.2,1.2-1.2C70.3,115.1,70.9,115.6,70.9,116.3
			"/>
		<path class="st6" d="M66.9,116.3c0,0.7-0.5,1.2-1.2,1.2c-0.7,0-1.2-0.5-1.2-1.2s0.5-1.2,1.2-1.2C66.3,115.1,66.9,115.6,66.9,116.3
			"/>
		<path class="st6" d="M72.9,112.3c0,0.7-0.5,1.2-1.2,1.2c-0.7,0-1.2-0.5-1.2-1.2s0.5-1.2,1.2-1.2C72.3,111.1,72.9,111.6,72.9,112.3
			"/>
		<path class="st6" d="M68.9,112.3c0,0.7-0.5,1.2-1.2,1.2c-0.7,0-1.2-0.5-1.2-1.2s0.5-1.2,1.2-1.2C68.3,111.1,68.9,111.6,68.9,112.3
			"/>
	</g>
	<g>
		<defs>
			<path id="SVGID_13_" d="M26.6,103.1v0.5c0,5.9,4.5,11,11,12.3l20,4.3l20-4.3c6.5-1.4,11-6.5,11-12.3v-0.5H26.6z"/>
		</defs>
		<clipPath id="SVGID_14_">
			<use xlink:href="#SVGID_13_"  style="overflow:visible;"/>
		</clipPath>
		<path class="st7" d="M64.9,112.3c0,0.7-0.5,1.2-1.2,1.2c-0.7,0-1.2-0.5-1.2-1.2s0.5-1.2,1.2-1.2C64.3,111.1,64.9,111.6,64.9,112.3
			"/>
		<path class="st7" d="M60.9,112.3c0,0.7-0.5,1.2-1.2,1.2c-0.7,0-1.2-0.5-1.2-1.2s0.5-1.2,1.2-1.2C60.3,111.1,60.9,111.6,60.9,112.3
			"/>
		<path class="st7" d="M66.9,108.3c0,0.7-0.5,1.2-1.2,1.2c-0.7,0-1.2-0.5-1.2-1.2s0.5-1.2,1.2-1.2C66.3,107.1,66.9,107.6,66.9,108.3
			"/>
		<path class="st7" d="M62.9,108.3c0,0.7-0.5,1.2-1.2,1.2c-0.7,0-1.2-0.5-1.2-1.2s0.5-1.2,1.2-1.2C62.3,107.1,62.9,107.6,62.9,108.3
			"/>
		<path class="st7" d="M58.9,108.3c0,0.7-0.5,1.2-1.2,1.2c-0.7,0-1.2-0.5-1.2-1.2s0.5-1.2,1.2-1.2C58.3,107.1,58.9,107.6,58.9,108.3
			"/>
	</g>
	<g>
		<defs>
			<polygon id="SVGID_15_" points="57.7,112.3 57.7,120.2 65.7,118.5 65.7,112.3 			"/>
		</defs>
		<clipPath id="SVGID_16_">
			<use xlink:href="#SVGID_15_"  style="overflow:visible;"/>
		</clipPath>
		<path class="st8" d="M64.9,120.3c0,0.7-0.5,1.2-1.2,1.2c-0.7,0-1.2-0.5-1.2-1.2s0.5-1.2,1.2-1.2C64.3,119.1,64.9,119.6,64.9,120.3
			"/>
		<path class="st8" d="M66.9,116.3c0,0.7-0.5,1.2-1.2,1.2c-0.7,0-1.2-0.5-1.2-1.2s0.5-1.2,1.2-1.2C66.3,115.1,66.9,115.6,66.9,116.3
			"/>
		<path class="st8" d="M62.9,116.3c0,0.7-0.5,1.2-1.2,1.2c-0.7,0-1.2-0.5-1.2-1.2s0.5-1.2,1.2-1.2C62.3,115.1,62.9,115.6,62.9,116.3
			"/>
		<path class="st8" d="M58.9,116.3c0,0.7-0.5,1.2-1.2,1.2c-0.7,0-1.2-0.5-1.2-1.2s0.5-1.2,1.2-1.2C58.3,115.1,58.9,115.6,58.9,116.3
			"/>
		<path class="st8" d="M64.9,112.3c0,0.7-0.5,1.2-1.2,1.2c-0.7,0-1.2-0.5-1.2-1.2s0.5-1.2,1.2-1.2C64.3,111.1,64.9,111.6,64.9,112.3
			"/>
		<path class="st8" d="M60.9,112.3c0,0.7-0.5,1.2-1.2,1.2c-0.7,0-1.2-0.5-1.2-1.2s0.5-1.2,1.2-1.2C60.3,111.1,60.9,111.6,60.9,112.3
			"/>
	</g>
	<g>
		<defs>
			<path id="SVGID_17_" d="M26.6,103.1v0.5c0,5.9,4.5,11,11,12.3l20,4.3l20-4.3c6.5-1.4,11-6.5,11-12.3v-0.5H26.6z"/>
		</defs>
		<clipPath id="SVGID_18_">
			<use xlink:href="#SVGID_17_"  style="overflow:visible;"/>
		</clipPath>
		<path class="st9" d="M56.9,112.3c0,0.7-0.5,1.2-1.2,1.2c-0.7,0-1.2-0.5-1.2-1.2s0.5-1.2,1.2-1.2C56.3,111.1,56.9,111.6,56.9,112.3
			"/>
		<path class="st9" d="M52.9,112.3c0,0.7-0.5,1.2-1.2,1.2c-0.7,0-1.2-0.5-1.2-1.2s0.5-1.2,1.2-1.2C52.3,111.1,52.9,111.6,52.9,112.3
			"/>
		<path class="st9" d="M58.9,108.3c0,0.7-0.5,1.2-1.2,1.2c-0.7,0-1.2-0.5-1.2-1.2s0.5-1.2,1.2-1.2C58.3,107.1,58.9,107.6,58.9,108.3
			"/>
		<path class="st9" d="M54.9,108.3c0,0.7-0.5,1.2-1.2,1.2c-0.7,0-1.2-0.5-1.2-1.2s0.5-1.2,1.2-1.2C54.3,107.1,54.9,107.6,54.9,108.3
			"/>
		<path class="st9" d="M50.9,108.3c0,0.7-0.5,1.2-1.2,1.2c-0.7,0-1.2-0.5-1.2-1.2s0.5-1.2,1.2-1.2C50.3,107.1,50.9,107.6,50.9,108.3
			"/>
	</g>
	<g>
		<defs>
			<polygon id="SVGID_19_" points="49.7,112.3 49.7,118.5 57.7,120.2 57.7,120.2 57.7,112.3 			"/>
		</defs>
		<clipPath id="SVGID_20_">
			<use xlink:href="#SVGID_19_"  style="overflow:visible;"/>
		</clipPath>
		<path class="st10" d="M52.9,120.3c0,0.7-0.5,1.2-1.2,1.2c-0.7,0-1.2-0.5-1.2-1.2s0.5-1.2,1.2-1.2
			C52.3,119.1,52.9,119.6,52.9,120.3"/>
		<path class="st10" d="M58.9,116.3c0,0.7-0.5,1.2-1.2,1.2c-0.7,0-1.2-0.5-1.2-1.2s0.5-1.2,1.2-1.2
			C58.3,115.1,58.9,115.6,58.9,116.3"/>
		<path class="st10" d="M54.9,116.3c0,0.7-0.5,1.2-1.2,1.2c-0.7,0-1.2-0.5-1.2-1.2s0.5-1.2,1.2-1.2
			C54.3,115.1,54.9,115.6,54.9,116.3"/>
		<path class="st10" d="M50.9,116.3c0,0.7-0.5,1.2-1.2,1.2c-0.7,0-1.2-0.5-1.2-1.2s0.5-1.2,1.2-1.2
			C50.3,115.1,50.9,115.6,50.9,116.3"/>
		<path class="st10" d="M56.9,112.3c0,0.7-0.5,1.2-1.2,1.2c-0.7,0-1.2-0.5-1.2-1.2s0.5-1.2,1.2-1.2
			C56.3,111.1,56.9,111.6,56.9,112.3"/>
		<path class="st10" d="M52.9,112.3c0,0.7-0.5,1.2-1.2,1.2c-0.7,0-1.2-0.5-1.2-1.2s0.5-1.2,1.2-1.2
			C52.3,111.1,52.9,111.6,52.9,112.3"/>
	</g>
	<g>
		<defs>
			<path id="SVGID_21_" d="M26.6,103.1v0.5c0,5.9,4.5,11,11,12.3l20,4.3l20-4.3c6.5-1.4,11-6.5,11-12.3v-0.5H26.6z"/>
		</defs>
		<clipPath id="SVGID_22_">
			<use xlink:href="#SVGID_21_"  style="overflow:visible;"/>
		</clipPath>
		<path class="st11" d="M48.9,112.3c0,0.7-0.5,1.2-1.2,1.2c-0.7,0-1.2-0.5-1.2-1.2s0.5-1.2,1.2-1.2
			C48.3,111.1,48.9,111.6,48.9,112.3"/>
		<path class="st11" d="M44.9,112.3c0,0.7-0.5,1.2-1.2,1.2c-0.7,0-1.2-0.5-1.2-1.2s0.5-1.2,1.2-1.2
			C44.3,111.1,44.9,111.6,44.9,112.3"/>
		<path class="st11" d="M50.9,108.3c0,0.7-0.5,1.2-1.2,1.2c-0.7,0-1.2-0.5-1.2-1.2s0.5-1.2,1.2-1.2
			C50.3,107.1,50.9,107.6,50.9,108.3"/>
		<path class="st11" d="M46.9,108.3c0,0.7-0.5,1.2-1.2,1.2c-0.7,0-1.2-0.5-1.2-1.2s0.5-1.2,1.2-1.2
			C46.3,107.1,46.9,107.6,46.9,108.3"/>
		<path class="st11" d="M42.9,108.3c0,0.7-0.5,1.2-1.2,1.2c-0.7,0-1.2-0.5-1.2-1.2s0.5-1.2,1.2-1.2
			C42.3,107.1,42.9,107.6,42.9,108.3"/>
	</g>
	<g>
		<defs>
			<polygon id="SVGID_23_" points="41.7,112.3 41.7,116.8 49.7,118.5 49.7,112.3 			"/>
		</defs>
		<clipPath id="SVGID_24_">
			<use xlink:href="#SVGID_23_"  style="overflow:visible;"/>
		</clipPath>
		<path class="st12" d="M48.9,120.3c0,0.7-0.5,1.2-1.2,1.2c-0.7,0-1.2-0.5-1.2-1.2s0.5-1.2,1.2-1.2
			C48.3,119.1,48.9,119.6,48.9,120.3"/>
		<path class="st12" d="M44.9,120.3c0,0.7-0.5,1.2-1.2,1.2c-0.7,0-1.2-0.5-1.2-1.2s0.5-1.2,1.2-1.2
			C44.3,119.1,44.9,119.6,44.9,120.3"/>
		<path class="st12" d="M50.9,116.3c0,0.7-0.5,1.2-1.2,1.2c-0.7,0-1.2-0.5-1.2-1.2s0.5-1.2,1.2-1.2
			C50.3,115.1,50.9,115.6,50.9,116.3"/>
		<path class="st12" d="M46.9,116.3c0,0.7-0.5,1.2-1.2,1.2c-0.7,0-1.2-0.5-1.2-1.2s0.5-1.2,1.2-1.2
			C46.3,115.1,46.9,115.6,46.9,116.3"/>
		<path class="st12" d="M48.9,112.3c0,0.7-0.5,1.2-1.2,1.2c-0.7,0-1.2-0.5-1.2-1.2s0.5-1.2,1.2-1.2
			C48.3,111.1,48.9,111.6,48.9,112.3"/>
		<path class="st12" d="M44.9,112.3c0,0.7-0.5,1.2-1.2,1.2c-0.7,0-1.2-0.5-1.2-1.2s0.5-1.2,1.2-1.2
			C44.3,111.1,44.9,111.6,44.9,112.3"/>
	</g>
	<g>
		<defs>
			<polygon id="SVGID_25_" points="33.8,104.3 33.7,112.3 41.7,112.3 41.8,104.3 			"/>
		</defs>
		<clipPath id="SVGID_26_">
			<use xlink:href="#SVGID_25_"  style="overflow:visible;"/>
		</clipPath>
		<path class="st13" d="M40.9,112.3c0,0.7-0.5,1.2-1.2,1.2c-0.7,0-1.2-0.5-1.2-1.2s0.5-1.2,1.2-1.2
			C40.3,111.1,40.9,111.6,40.9,112.3"/>
		<path class="st13" d="M36.9,112.3c0,0.7-0.5,1.2-1.2,1.2c-0.7,0-1.2-0.5-1.2-1.2s0.5-1.2,1.2-1.2
			C36.3,111.1,36.9,111.6,36.9,112.3"/>
		<path class="st13" d="M42.9,108.3c0,0.7-0.5,1.2-1.2,1.2c-0.7,0-1.2-0.5-1.2-1.2s0.5-1.2,1.2-1.2
			C42.3,107.1,42.9,107.6,42.9,108.3"/>
		<path class="st13" d="M38.9,108.3c0,0.7-0.5,1.2-1.2,1.2c-0.7,0-1.2-0.5-1.2-1.2s0.5-1.2,1.2-1.2
			C38.3,107.1,38.9,107.6,38.9,108.3"/>
		<path class="st13" d="M34.9,108.3c0,0.7-0.5,1.2-1.2,1.2c-0.7,0-1.2-0.5-1.2-1.2s0.5-1.2,1.2-1.2
			C34.3,107.1,34.9,107.6,34.9,108.3"/>
	</g>
	<g>
		<defs>
			<path id="SVGID_27_" d="M26.6,103.1v0.5c0,5.9,4.5,11,11,12.3l20,4.3l20-4.3c6.5-1.4,11-6.5,11-12.3v-0.5H26.6z"/>
		</defs>
		<clipPath id="SVGID_28_">
			<use xlink:href="#SVGID_27_"  style="overflow:visible;"/>
		</clipPath>
		<path class="st14" d="M40.9,120.3c0,0.7-0.5,1.2-1.2,1.2c-0.7,0-1.2-0.5-1.2-1.2s0.5-1.2,1.2-1.2
			C40.3,119.1,40.9,119.6,40.9,120.3"/>
		<path class="st14" d="M36.9,120.3c0,0.7-0.5,1.2-1.2,1.2c-0.7,0-1.2-0.5-1.2-1.2s0.5-1.2,1.2-1.2
			C36.3,119.1,36.9,119.6,36.9,120.3"/>
		<path class="st14" d="M34.9,116.3c0,0.7-0.5,1.2-1.2,1.2c-0.7,0-1.2-0.5-1.2-1.2s0.5-1.2,1.2-1.2
			C34.3,115.1,34.9,115.6,34.9,116.3"/>
		<path class="st14" d="M40.9,112.3c0,0.7-0.5,1.2-1.2,1.2c-0.7,0-1.2-0.5-1.2-1.2s0.5-1.2,1.2-1.2
			C40.3,111.1,40.9,111.6,40.9,112.3"/>
		<path class="st14" d="M36.9,112.3c0,0.7-0.5,1.2-1.2,1.2c-0.7,0-1.2-0.5-1.2-1.2s0.5-1.2,1.2-1.2
			C36.3,111.1,36.9,111.6,36.9,112.3"/>
		<path class="st14" d="M28.9,112.3c0,0.7-0.5,1.2-1.2,1.2c-0.7,0-1.2-0.5-1.2-1.2s0.5-1.2,1.2-1.2
			C28.3,111.1,28.9,111.6,28.9,112.3"/>
		<path class="st14" d="M34.9,108.3c0,0.7-0.5,1.2-1.2,1.2c-0.7,0-1.2-0.5-1.2-1.2s0.5-1.2,1.2-1.2
			C34.3,107.1,34.9,107.6,34.9,108.3"/>
		<path class="st14" d="M30.9,108.3c0,0.7-0.5,1.2-1.2,1.2c-0.7,0-1.2-0.5-1.2-1.2s0.5-1.2,1.2-1.2
			C30.3,107.1,30.9,107.6,30.9,108.3"/>
		<path class="st14" d="M26.9,108.3c0,0.7-0.5,1.2-1.2,1.2c-0.7,0-1.2-0.5-1.2-1.2s0.5-1.2,1.2-1.2
			C26.3,107.1,26.9,107.6,26.9,108.3"/>
	</g>
	<g>
		<defs>
			<path id="SVGID_29_" d="M30.5,112.3c0.9,0.9,2,1.6,3.1,2.2v-2.2H30.5z"/>
		</defs>
		<clipPath id="SVGID_30_">
			<use xlink:href="#SVGID_29_"  style="overflow:visible;"/>
		</clipPath>
		<path class="st15" d="M32.9,120.3c0,0.7-0.5,1.2-1.2,1.2c-0.7,0-1.2-0.5-1.2-1.2s0.5-1.2,1.2-1.2
			C32.3,119.1,32.9,119.6,32.9,120.3"/>
		<path class="st15" d="M28.9,120.3c0,0.7-0.5,1.2-1.2,1.2c-0.7,0-1.2-0.5-1.2-1.2s0.5-1.2,1.2-1.2
			C28.3,119.1,28.9,119.6,28.9,120.3"/>
		<path class="st15" d="M34.9,116.3c0,0.7-0.5,1.2-1.2,1.2c-0.7,0-1.2-0.5-1.2-1.2s0.5-1.2,1.2-1.2
			C34.3,115.1,34.9,115.6,34.9,116.3"/>
		<path class="st15" d="M30.9,116.3c0,0.7-0.5,1.2-1.2,1.2c-0.7,0-1.2-0.5-1.2-1.2s0.5-1.2,1.2-1.2
			C30.3,115.1,30.9,115.6,30.9,116.3"/>
		<path class="st15" d="M26.9,116.3c0,0.7-0.5,1.2-1.2,1.2c-0.7,0-1.2-0.5-1.2-1.2s0.5-1.2,1.2-1.2
			C26.3,115.1,26.9,115.6,26.9,116.3"/>
		<path class="st15" d="M28.9,112.3c0,0.7-0.5,1.2-1.2,1.2c-0.7,0-1.2-0.5-1.2-1.2s0.5-1.2,1.2-1.2
			C28.3,111.1,28.9,111.6,28.9,112.3"/>
	</g>
	<g>
		<defs>
			<rect id="SVGID_31_" x="3.6" y="8.9" width="108.1" height="130.6"/>
		</defs>
		<clipPath id="SVGID_32_">
			<use xlink:href="#SVGID_31_"  style="overflow:visible;"/>
		</clipPath>
		<rect x="35.2" y="89.6" class="st16" width="2" height="5.7"/>
		<polygon class="st16" points="33.2,94.4 36.2,99.6 39.2,94.4 		"/>
		<rect x="49.5" y="89.6" class="st16" width="2" height="5.7"/>
		<polygon class="st16" points="47.5,94.4 50.5,99.6 53.5,94.4 		"/>
		<rect x="63.8" y="89.6" class="st16" width="2" height="5.7"/>
		<polygon class="st16" points="61.8,94.4 64.8,99.6 67.8,94.4 		"/>
		<rect x="78.2" y="89.6" class="st16" width="2" height="5.7"/>
		<polygon class="st16" points="76.2,94.4 79.2,99.6 82.2,94.4 		"/>
	</g>
</g>
</svg>
