<?xml version="1.0" encoding="utf-8"?>
<!-- Generator: Adobe Illustrator 22.0.1, SVG Export Plug-In . SVG Version: 6.00 Build 0)  -->
<svg version="1.1" id="Capa_1" xmlns="http://www.w3.org/2000/svg" xmlns:xlink="http://www.w3.org/1999/xlink" x="0px" y="0px"
	 viewBox="0 0 402.9 204.9" style="enable-background:new 0 0 402.9 204.9;" xml:space="preserve">
<style type="text/css">
	.st0{fill:#4EBED0;}
	.st1{fill:none;stroke:#5F5F5E;stroke-width:2.4;stroke-linecap:round;stroke-miterlimit:10;}
</style>
<path class="st0" d="M241.3,110.1c0,3.1,2.5,5.7,5.7,5.7c3.1,0,5.7-2.5,5.7-5.7c0-2.4-1.4-4.4-3.5-5.2V89.5c0-0.8-0.6-1.4-1.4-1.4
	h-1.5c-0.8,0-1.4,0.6-1.4,1.4v15.3C242.7,105.7,241.3,107.7,241.3,110.1z"/>
<path class="st1" d="M228,124.7c0,18-65.4,16.8-65.4-1.2l-0.1-63.3c0,17.6,66.1,17.6,66.1,0L228,124.7z"/>
<path class="st1" d="M168.2,58.9c0-14.5,54.6-13.6,54.6,1"/>
<circle class="st1" cx="195.5" cy="104.7" r="12"/>
<polyline class="st1" points="188,105.5 195.3,105.5 198.5,97.8 195.3,105.5 200,111.2 "/>
<g>
	<path class="st1" d="M150.9,148.2c5,0,5,8,10,8s5-8,10-8s5,8,10,8s5-8,10-8s5,8,10,8s5-8,10-8s5,8,10,8s5-8,10-8s5,8,10,8"/>
</g>
<path class="st1" d="M241.3,110.1c0,3.1,2.5,5.7,5.7,5.7c3.1,0,5.7-2.5,5.7-5.7c0-2.4-1.4-4.4-3.5-5.2V79.5c0-0.8-0.6-1.4-1.4-1.4
	h-1.5c-0.8,0-1.4,0.6-1.4,1.4v25.3C242.7,105.7,241.3,107.7,241.3,110.1z"/>
</svg>
