<?xml version="1.0" encoding="utf-8"?>
<!-- Generator: Adobe Illustrator 22.0.1, SVG Export Plug-In . SVG Version: 6.00 Build 0)  -->
<svg version="1.1" id="Capa_1" xmlns="http://www.w3.org/2000/svg" xmlns:xlink="http://www.w3.org/1999/xlink" x="0px" y="0px"
	 viewBox="0 0 304.2 154.7" style="enable-background:new 0 0 304.2 154.7;" xml:space="preserve">
<style type="text/css">
	.st0{fill:#4DBED0;}
	.st1{fill:#FFD45B;}
	.st2{fill:none;stroke:#5E5E5E;stroke-width:2;stroke-linecap:round;stroke-miterlimit:10;}
	.st3{stroke:#5E5E5E;stroke-width:0.6;stroke-miterlimit:10;}
	.st4{fill:none;stroke:#5E5E5E;stroke-linecap:round;stroke-miterlimit:10;}
	.st5{fill:#5E5E5E;}
	.st6{fill:none;stroke:#E4D5C2;stroke-width:2;stroke-linecap:round;stroke-miterlimit:10;}
	.st7{fill:#E4D5C2;}
	.st8{fill:#5E5E5E;stroke:#5E5E5E;stroke-width:0.5;stroke-miterlimit:10;}
	.st9{fill:none;stroke:#5E5E5E;stroke-width:2;stroke-miterlimit:10;}
	.st10{fill:none;stroke:#5E5E5E;stroke-width:1.7;stroke-linecap:round;stroke-linejoin:round;stroke-miterlimit:10;}
</style>
<path class="st0" d="M199.1,30.1l-5.7,8.9l-0.7,3.3l1.4,3.5l4,2.5c0,0,4.5-1.3,4.9-1.5c0.4-0.1,2.5-3.1,2.5-3.1l-0.1-3.8l-4.4-7.7
	L199.1,30.1z"/>
<polygon class="st1" points="105.3,34 100.4,29.6 100.4,43.8 105.2,47.4 110.2,43.7 110.2,29.3 "/>
<path class="st2" d="M193.3,137.1c0,11.2-82.8,11.2-82.8,0V98.7c0,10.9,82.8,10.9,82.8,0V137.1z"/>
<path class="st2" d="M114,94.6l30.1-13c0,6.1,15.8,6.1,15.8,0l30.1,13"/>
<line class="st2" x1="151.9" y1="66.2" x2="151.9" y2="81.7"/>
<path class="st3" d="M135.7,129.6c1.9,0,3.5-1.6,3.5-3.5c0-0.8-0.3-1.5-0.7-2.1l-2.5-4c0-0.1-0.1-0.1-0.2-0.1h-0.1c0,0,0,0-0.1,0
	l0,0c-0.1,0-0.1,0.1-0.2,0.1l-2.6,4.1l0,0l0,0l0,0c-0.4,0.6-0.6,1.3-0.6,2C132.2,128,133.8,129.6,135.7,129.6z M133.2,124.7
	L133.2,124.7l0.2-0.3l2.3-3.7l2.3,3.6l0,0l0,0c0.3,0.4,0.6,1,0.6,1.8c0,1.6-1.3,2.9-2.9,2.9c-1.6,0-2.9-1.3-2.9-2.9
	C132.8,125.6,132.9,125.1,133.2,124.7z"/>
<g>
	<line class="st4" x1="170.4" y1="116.8" x2="170.4" y2="132"/>
	<polyline class="st4" points="167.9,118.2 167.9,126.6 170.4,128.9 	"/>
	<line class="st4" x1="167.9" y1="119.9" x2="170.4" y2="122.2"/>
	<line class="st4" x1="167.9" y1="122.2" x2="170.4" y2="124.4"/>
	<line class="st4" x1="167.9" y1="124.4" x2="170.4" y2="126.7"/>
	<polyline class="st4" points="172.9,118.2 172.9,126.6 170.4,128.9 	"/>
	<line class="st4" x1="172.8" y1="119.9" x2="170.4" y2="122.2"/>
	<line class="st4" x1="172.8" y1="122.2" x2="170.4" y2="124.4"/>
	<line class="st4" x1="172.8" y1="124.4" x2="170.4" y2="126.7"/>
</g>
<circle class="st5" cx="154.3" cy="125.5" r="2.6"/>
<line class="st2" x1="145.1" y1="111.8" x2="152.8" y2="124.7"/>
<line class="st2" x1="155.3" y1="125.9" x2="163" y2="138.9"/>
<g>
	<g>
		<path class="st6" d="M171.9,39h-9.2c-6,0-10.8,4.8-10.8,10.8v7.7"/>
		<g>
			<polygon class="st7" points="148.9,56.6 151.9,61.8 154.9,56.6 			"/>
		</g>
	</g>
</g>
<g>
	<g>
		<path class="st6" d="M131.9,39h9.2c6,0,10.8,4.8,10.8,10.8v7.7"/>
		<g>
			<polygon class="st7" points="148.9,56.6 151.9,61.8 154.9,56.6 			"/>
		</g>
	</g>
</g>
<path class="st8" d="M198.8,48.7c3.9,0,7-3.1,7-7c0-1.6-0.6-3-1.4-4.2l-5.1-8c-0.1-0.1-0.2-0.2-0.4-0.3c-0.1,0-0.1,0-0.2,0h-0.1
	c0,0,0,0-0.1,0c-0.1,0-0.3,0.1-0.3,0.3l-5.2,8.1l0,0l0,0l0,0c-0.8,1.1-1.3,2.5-1.3,4C191.8,45.6,194.9,48.7,198.8,48.7z M193.7,38.9
	L193.7,38.9l0.4-0.6l4.7-7.3l4.6,7.2l0,0l0,0c0.5,0.8,1.2,2,1.2,3.5c0,3.2-2.6,5.8-5.8,5.8s-5.8-2.6-5.8-5.8
	C193,40.8,193.2,39.8,193.7,38.9z"/>
<circle class="st9" cx="198.8" cy="39" r="19.7"/>
<g>
	<line class="st10" x1="105.3" y1="23.8" x2="105.3" y2="54.2"/>
	<polyline class="st10" points="100.4,26.8 100.4,43.4 105.3,47.9 	"/>
	<line class="st10" x1="100.5" y1="30" x2="105.3" y2="34.6"/>
	<line class="st10" x1="100.5" y1="34.6" x2="105.3" y2="39.1"/>
	<line class="st10" x1="100.5" y1="39.1" x2="105.3" y2="43.6"/>
	<polyline class="st10" points="110.3,26.8 110.3,43.4 105.3,47.9 	"/>
	<line class="st10" x1="110.2" y1="30" x2="105.3" y2="34.6"/>
	<line class="st10" x1="110.2" y1="34.6" x2="105.3" y2="39.1"/>
	<line class="st10" x1="110.2" y1="39.1" x2="105.3" y2="43.6"/>
</g>
<circle class="st9" cx="105.3" cy="39" r="19.7"/>
</svg>
