<?xml version="1.0" encoding="utf-8"?>
<!-- Generator: Adobe Illustrator 22.1.0, SVG Export Plug-In . SVG Version: 6.00 Build 0)  -->
<svg version="1.1" id="Capa_1" xmlns="http://www.w3.org/2000/svg" xmlns:xlink="http://www.w3.org/1999/xlink" x="0px" y="0px"
	 viewBox="0 0 105.2 151.2" style="enable-background:new 0 0 105.2 151.2;" xml:space="preserve">
<style type="text/css">
	.st0{fill:none;stroke:#60605E;stroke-width:2;stroke-miterlimit:10;}
	.st1{fill:#60605E;}
	.st2{fill:none;stroke:#5F5F5E;stroke-width:1.7714;stroke-linecap:round;stroke-miterlimit:10;}
	.st3{fill:none;stroke:#E4D5C2;stroke-width:2;stroke-linecap:round;stroke-miterlimit:10;}
	.st4{fill:#E4D5C2;}
	.st5{fill:none;stroke:#60605E;stroke-width:2.1805;stroke-linecap:round;stroke-miterlimit:10;}
	.st6{fill:none;stroke:#60605E;stroke-width:2;stroke-linecap:round;stroke-miterlimit:10;}
	.st7{fill:none;stroke:#60605E;stroke-width:1.7714;stroke-linecap:round;stroke-miterlimit:10;}
	.st8{fill:none;stroke:#60605E;stroke-width:2.1438;stroke-linecap:round;stroke-miterlimit:10;}
</style>
<circle class="st0" cx="79.7" cy="25.3" r="23.5"/>
<g>
	<circle class="st1" cx="86.5" cy="24.3" r="1.4"/>
	<circle class="st1" cx="87.7" cy="19.9" r="1.4"/>
	<circle class="st1" cx="83.1" cy="21.4" r="1.4"/>
	<circle class="st1" cx="84.3" cy="17.4" r="1.4"/>
	<circle class="st1" cx="85.4" cy="12.9" r="1.4"/>
	<circle class="st1" cx="80.9" cy="14.5" r="1.4"/>
	<circle class="st1" cx="78.6" cy="23" r="1.4"/>
	<circle class="st1" cx="79.7" cy="18.5" r="1.4"/>
	<circle class="st1" cx="75.2" cy="20.1" r="1.4"/>
	<circle class="st1" cx="83.2" cy="37.1" r="1.4"/>
	<circle class="st1" cx="84.4" cy="32.6" r="1.4"/>
	<circle class="st1" cx="79.8" cy="34.2" r="1.4"/>
	<circle class="st1" cx="81" cy="30.2" r="1.4"/>
	<circle class="st1" cx="82.2" cy="25.7" r="1.4"/>
	<circle class="st1" cx="77.6" cy="27.3" r="1.4"/>
	<circle class="st1" cx="75.3" cy="35.8" r="1.4"/>
	<circle class="st1" cx="76.4" cy="31.3" r="1.4"/>
	<circle class="st1" cx="71.9" cy="32.8" r="1.4"/>
</g>
<line class="st2" x1="49" y1="122.7" x2="49" y2="149.5"/>
<line class="st2" x1="10.7" y1="124.4" x2="10.7" y2="149.5"/>
<g>
	<g>
		<path class="st3" d="M48.7,26h-9.2c-6,0-10.8,4.8-10.8,10.8v7.7"/>
		<g>
			<polygon class="st4" points="25.7,43.6 28.7,48.8 31.7,43.6 			"/>
		</g>
	</g>
</g>
<path class="st5" d="M55,96.9c0,16.1-52.5,15-52.5-1.1"/>
<path class="st5" d="M55,86.1c0,16.1-52.5,15-52.5-1.1"/>
<path class="st6" d="M8.8,62.9c0-10.5,39.8-12,39.8,0.6"/>
<line class="st7" x1="49" y1="122.4" x2="49" y2="148.7"/>
<line class="st7" x1="10.7" y1="123.6" x2="10.7" y2="148.7"/>
<path class="st8" d="M54.9,64.4c0,12.8-52.4,12.8-52.4,0l0.1,46.1c0,0.2,0,0.5,0,0.7c0.5,8.3,8.9,12.1,17.3,18.1c0,0,0,0.1,0,0.1
	v4.8c0,0.1,0,0.2,0.1,0.4c-0.1,0.3,8.6,9.2,8.8,9.5c0.5,0.5,1.3,0.5,1.9,0l8.9-8.9c0.1-0.1,0.1-0.2,0.1-0.3c0.1-0.2,0.2-0.4,0.2-0.7
	c0,0,0-5,0-5c10.1-8.6,14.5-9.8,15-17.2c0-0.2,0-0.5,0-0.7L54.9,64.4z"/>
<line class="st5" x1="54.8" y1="82" x2="59.8" y2="82"/>
<line class="st5" x1="60.2" y1="75.5" x2="60.2" y2="88.2"/>
</svg>
