<?xml version="1.0" encoding="utf-8"?>
<!-- Generator: Adobe Illustrator 22.0.1, SVG Export Plug-In . SVG Version: 6.00 Build 0)  -->
<svg version="1.1" id="Capa_1" xmlns="http://www.w3.org/2000/svg" xmlns:xlink="http://www.w3.org/1999/xlink" x="0px" y="0px"
	 viewBox="0 0 309.2 157.2" style="enable-background:new 0 0 309.2 157.2;" xml:space="preserve">
<style type="text/css">
	.st0{fill:none;stroke:#5F5F5E;stroke-width:1.8;stroke-linecap:round;stroke-miterlimit:10;}
</style>
<g>
	<path class="st0" d="M137.1,60.7c-0.3,1.9-1.4,10.2-1.4,13.3c-0.1,3.1-0.5,4.9-1.5,5.8c-1.1,0.9-2.2,2.9-2.2,4.8c0,2,0,19.3,0,20.6
		c0,1.7,1.5,3.4,4.8,3.4h7.6c3.3,0,4.8-1.7,4.8-3.4c0-1.3,0-18.6,0-20.6s-1.1-3.9-2.2-4.8c-1.1-0.9-1.4-2.7-1.5-5.8
		c-0.1-3.1-1.1-11.4-1.4-13.3"/>
	<line class="st0" x1="135.9" y1="71" x2="145.2" y2="71"/>
	<ellipse class="st0" cx="140.5" cy="89.9" rx="5.1" ry="6.9"/>
	<path class="st0" d="M135.4,60v-1c0-0.9,0.8-1.7,1.7-1.7h6.9c0.9,0,1.7,0.8,1.7,1.7v1"/>
</g>
<g>
	<path class="st0" d="M109.2,60.7c-0.3,1.9-1.4,10.2-1.4,13.3c-0.1,3.1-0.5,4.9-1.5,5.8c-1.1,0.9-2.2,2.9-2.2,4.8c0,2,0,19.3,0,20.6
		c0,1.7,1.5,3.4,4.8,3.4h7.6c3.3,0,4.8-1.7,4.8-3.4c0-1.3,0-18.6,0-20.6s-1.1-3.9-2.2-4.8c-1.1-0.9-1.4-2.7-1.5-5.8
		c-0.2-3-1.2-11.3-1.5-13.3"/>
	<line class="st0" x1="108" y1="71" x2="117.3" y2="71"/>
	<ellipse class="st0" cx="112.6" cy="89.9" rx="5.1" ry="6.9"/>
	<path class="st0" d="M107.5,60v-1c0-0.9,0.8-1.7,1.7-1.7h6.9c0.9,0,1.7,0.8,1.7,1.7v1"/>
</g>
<g>
	<path class="st0" d="M164.9,60.7c-0.3,1.9-1.4,10.2-1.4,13.3c-0.1,3.1-0.5,4.9-1.5,5.8c-1.1,0.9-2.2,2.9-2.2,4.8c0,2,0,19.3,0,20.6
		c0,1.7,1.5,3.4,4.8,3.4h7.6c3.3,0,4.8-1.7,4.8-3.4c0-1.3,0-18.6,0-20.6s-1.1-3.9-2.2-4.8c-1.1-0.9-1.4-2.7-1.5-5.8
		c-0.2-3-1.2-11.3-1.5-13.3"/>
	<line class="st0" x1="163.7" y1="71" x2="173" y2="71"/>
	<ellipse class="st0" cx="168.4" cy="89.9" rx="5.1" ry="6.9"/>
	<path class="st0" d="M163.2,60v-1c0-0.9,0.8-1.7,1.7-1.7h6.9c0.9,0,1.7,0.8,1.7,1.7v1"/>
</g>
<path class="st0" d="M192.8,60.7c-0.3,1.9-1.4,10.2-1.4,13.3c-0.1,3.1-0.5,4.9-1.5,5.8c-1.1,0.9-2.2,2.9-2.2,4.8c0,2,0,19.3,0,20.6
	c0,1.7,1.5,3.4,4.8,3.4h7.6c3.3,0,4.8-1.7,4.8-3.4c0-1.3,0-18.6,0-20.6s-1.1-3.9-2.2-4.8c-1.1-0.9-1.4-2.7-1.5-5.8
	c-0.1-3.1-1.1-11.4-1.4-13.3"/>
<line class="st0" x1="191.6" y1="71" x2="200.9" y2="71"/>
<ellipse class="st0" cx="196.2" cy="89.9" rx="5.1" ry="6.9"/>
<line class="st0" x1="87.4" y1="113.5" x2="221.5" y2="113.5"/>
<g>
	<path class="st0" d="M191.1,51.5v-1c0-0.9,0.8-1.7,1.7-1.7h6.9c0.9,0,1.7,0.8,1.7,1.7v1"/>
	<line class="st0" x1="88" y1="43.6" x2="220.8" y2="43.6"/>
	<line class="st0" x1="196.2" y1="43.6" x2="196.2" y2="48.7"/>
</g>
</svg>
