<?xml version="1.0" encoding="utf-8"?>
<!-- Generator: Adobe Illustrator 22.0.1, SVG Export Plug-In . SVG Version: 6.00 Build 0)  -->
<svg version="1.1" id="Capa_1" xmlns="http://www.w3.org/2000/svg" xmlns:xlink="http://www.w3.org/1999/xlink" x="0px" y="0px"
	 viewBox="0 0 267.1 135.8" style="enable-background:new 0 0 267.1 135.8;" xml:space="preserve">
<style type="text/css">
	.st0{fill:#FFD45B;}
	.st1{fill:#F6A64D;}
	.st2{fill:none;stroke:#5F5F5E;stroke-width:1.6;stroke-linecap:round;stroke-miterlimit:10;}
	.st3{fill:#5F5F5E;}
	.st4{fill:none;stroke:#5F5F5E;stroke-width:1.6;stroke-miterlimit:10;}
	.st5{fill:none;stroke:#E4D5C2;stroke-width:1.6;stroke-miterlimit:10;}
	.st6{fill:#E4D5C2;}
</style>
<path class="st0" d="M215.7,63.7c-4.5-2.3-13.9-3.8-24.7-3.8c-11,0-20.4,1.6-24.9,3.9C177.7,68.2,204.2,68.1,215.7,63.7z"/>
<path class="st1" d="M209.3,44.6c0-2-1.6-3.6-3.6-3.6s-3.6,1.6-3.6,3.6c0,1.5,0.9,2.8,2.2,3.3v9.7c0,0.5,0.4,0.9,0.9,0.9h0.9
	c0.5,0,0.9-0.4,0.9-0.9v-9.7C208.4,47.4,209.3,46.1,209.3,44.6z"/>
<g>
	<path class="st0" d="M93.9,50c0,0-3-1-4.8,0.8c-1.1,1.1-1.1,2.9,0,4s2.9,1.1,4,0C94.9,53.1,93.9,50,93.9,50z"/>
	<path class="st0" d="M87.8,46.3c0-2.5-2.9-4-2.9-4s-2.9,1.4-2.9,4c0,1.6,1.3,2.9,2.9,2.9C86.5,49.2,87.8,47.9,87.8,46.3z"/>
	<path class="st0" d="M77.8,35.8c2.5,0,4,2.9,4,2.9s-1.4,2.9-4,2.9c-1.6,0-2.9-1.3-2.9-2.9S76.3,35.8,77.8,35.8z"/>
	<path class="st0" d="M82.1,59.4c0,2.5,2.9,4,2.9,4s2.8-1.4,2.8-4c0-1.6-1.3-2.9-2.9-2.9C83.3,56.5,82.1,57.8,82.1,59.4z"/>
	<path class="st0" d="M77.2,49.3c2.5,0,4,2.9,4,2.9s-1.4,2.8-4,2.8c-1.6,0-2.9-1.3-2.9-2.9C74.4,50.6,75.7,49.3,77.2,49.3z"/>
	<path class="st0" d="M89,38.8c0,2.5,2.9,4,2.9,4s2.9-1.4,2.9-4c0-1.6-1.3-2.9-2.9-2.9C90.3,36,89,37.3,89,38.8z"/>
	<path class="st0" d="M69.4,31.6c0-2.5,2.8-4,2.8-4s2.9,1.4,2.9,4c0,1.6-1.3,2.9-2.8,2.9C70.7,34.4,69.4,33.2,69.4,31.6z"/>
</g>
<g>
	<path class="st2" d="M93.9,49.8c0,0-3-1-4.8,0.8c-1.1,1.1-1.1,2.9,0,4s2.9,1.1,4,0C94.9,52.9,93.9,49.8,93.9,49.8z"/>
	<path class="st2" d="M87.8,46.1c0-2.5-2.8-4-2.8-4s-2.8,1.4-2.8,4c0,1.6,1.3,2.8,2.8,2.8C86.5,49,87.8,47.7,87.8,46.1z"/>
	<path class="st2" d="M77.9,35.6c2.5,0,4,2.8,4,2.8s-1.4,2.8-4,2.8c-1.6,0-2.8-1.3-2.8-2.8S76.3,35.6,77.9,35.6z"/>
	<path class="st2" d="M82.1,59.1c0,2.5,2.8,4,2.8,4s2.8-1.4,2.8-4c0-1.6-1.3-2.8-2.8-2.8S82.1,57.5,82.1,59.1z"/>
	<path class="st2" d="M77.3,49.1c2.5,0,4,2.8,4,2.8s-1.4,2.8-4,2.8c-1.6,0-2.8-1.3-2.8-2.8C74.5,50.3,75.7,49.1,77.3,49.1z"/>
	<path class="st2" d="M89,38.7c0,2.5,2.8,4,2.8,4s2.8-1.4,2.8-4c0-1.6-1.3-2.8-2.8-2.8C90.3,35.8,89,37.1,89,38.7z"/>
	<path class="st2" d="M69.5,31.5c0-2.5,2.8-4,2.8-4s2.8,1.4,2.8,4c0,1.6-1.3,2.8-2.8,2.8S69.5,33,69.5,31.5z"/>
</g>
<g>
	<g>
		<circle class="st2" cx="98" cy="79.6" r="10.7"/>
		<circle class="st2" cx="98" cy="79.6" r="2.4"/>
	</g>
	<g>
		<circle class="st2" cx="71.5" cy="79.6" r="10.7"/>
		<circle class="st2" cx="71.5" cy="79.6" r="2.4"/>
	</g>
</g>
<path class="st2" d="M84.8,93.6c-12.5-0.2-16.4,16.2-25.6,16.2h51.3C101.2,109.8,97.2,93.4,84.8,93.6z"/>
<circle class="st3" cx="82.1" cy="98.3" r="1.4"/>
<circle class="st3" cx="78.1" cy="100.6" r="1.4"/>
<circle class="st3" cx="82.4" cy="102.7" r="1.4"/>
<line class="st2" x1="45.8" y1="109.8" x2="123.7" y2="109.8"/>
<g>
	<g>
		<path class="st2" d="M70.9,95.8c-8.9,0-16.2-7.2-16.2-16.2c0-8.2,6-14.9,13.9-16"/>
		<g>
			<polygon class="st3" points="68.2,65.3 70.9,63.5 68,62.1 			"/>
		</g>
	</g>
</g>
<g>
	<g>
		<path class="st2" d="M98.7,95.8c8.9,0,16.2-7.2,16.2-16.2c0-8.2-6-14.9-13.9-16"/>
		<g>
			<polygon class="st3" points="101.6,62.1 98.7,63.5 101.3,65.3 			"/>
		</g>
	</g>
</g>
<path class="st2" d="M221.9,101.5c0,11.8-62.7,11.1-62.7-0.8l-0.1-41.6c0,11.6,63.1,11.6,63.1,0L221.9,101.5z"/>
<g>
	<path class="st3" d="M205.3,52c-5.4-0.8-11.4-1-16-1c-7.3,0-14.1,0.6-19.1,1.7c-6,1.3-9.1,3.3-9.1,5.9h1.6c0-1.7,2.9-3.3,7.9-4.4
		c4.9-1.1,11.5-1.7,18.7-1.7c5.9,0,11.4,0.4,16,1V52z"/>
	<path class="st3" d="M206.6,52.2v1.6c7.4,1.2,12.1,3.2,12.1,5.4h1.6C220.3,55.5,214.1,53.3,206.6,52.2z"/>
</g>
<path class="st4" d="M207.4,47.9c1.3-0.6,2.3-1.9,2.3-3.4c0-2.1-1.7-3.7-3.7-3.7c-2.1,0-3.7,1.7-3.7,3.7c0,1.6,0.9,2.9,2.3,3.4v19
	c1-0.1,1.9-0.3,2.8-0.4L207.4,47.9L207.4,47.9z"/>
<g>
	<g>
		<line class="st5" x1="127.6" y1="79.6" x2="142.8" y2="79.6"/>
		<g>
			<polygon class="st6" points="142.1,82 146.3,79.6 142.1,77.2 			"/>
		</g>
	</g>
</g>
</svg>
