<?xml version="1.0" encoding="utf-8"?>
<!-- Generator: Adobe Illustrator 22.1.0, SVG Export Plug-In . SVG Version: 6.00 Build 0)  -->
<svg version="1.1" id="Capa_1" xmlns="http://www.w3.org/2000/svg" xmlns:xlink="http://www.w3.org/1999/xlink" x="0px" y="0px"
	 viewBox="0 0 104.3 151.3" style="enable-background:new 0 0 104.3 151.3;" xml:space="preserve">
<style type="text/css">
	.st0{fill:#A1C443;}
	.st1{fill:none;stroke:#5F5F5E;stroke-width:2;stroke-linecap:round;stroke-miterlimit:10;}
	.st2{fill:none;stroke:#5F5F5E;stroke-width:1.7714;stroke-linecap:round;stroke-miterlimit:10;}
	.st3{fill:none;stroke:#5F5F5E;stroke-width:1.9;stroke-miterlimit:10;}
	.st4{fill:none;stroke:#5F5F5E;stroke-width:1.8;stroke-linecap:round;stroke-miterlimit:10;}
	.st5{fill:none;stroke:#5F5F5E;stroke-width:1.9;stroke-linecap:round;stroke-miterlimit:10;}
	.st6{fill:none;stroke:#E4D5C2;stroke-width:2;stroke-linecap:round;stroke-miterlimit:10;}
	.st7{fill:#E4D5C2;}
</style>
<path class="st0" d="M67.4,23.7l3.2-5.8l3.4-3.7l1.6,0.9l4-3.4l3.5,3.3l2.6-0.8l2,3.2l0.9,2.6l2,4.3l2.6,1.5l-0.3,4.8l-6.4,5.8
	c0,0-5.8,0.2-6,0.2s-8-0.2-8-0.2l-7-5l-1-5.3l1.8-1.2L67.4,23.7z"/>
<g>
	<path class="st1" d="M8.4,63.5c0-10.5,39.8-12,39.8,0.6"/>
	<circle class="st1" cx="28.7" cy="100.3" r="12"/>
	<circle class="st1" cx="28.7" cy="100.8" r="0.9"/>
	<line class="st1" x1="29.2" y1="100.8" x2="36.7" y2="100.8"/>
	<g>
		<line class="st1" x1="22.7" y1="94.4" x2="25" y2="97.2"/>
		<line class="st1" x1="34.7" y1="94.4" x2="32.4" y2="97.2"/>
		<line class="st1" x1="28.7" y1="92.7" x2="28.7" y2="96.2"/>
	</g>
</g>
<line class="st2" x1="48.7" y1="122.6" x2="48.7" y2="149.3"/>
<line class="st2" x1="10.3" y1="124.2" x2="10.3" y2="149.3"/>
<path class="st1" d="M54.5,65c0,12.8-52.4,12.8-52.4,0l0.1,46.1c0,0.2,0,0.5,0,0.7c0.5,8.3,8.9,12.1,17.3,18.1c0,0,0,0.1,0,0.1v9.8
	c0,0.8,0.6,1.4,1.4,1.4h17.2c0.8,0,1.4-0.6,1.4-1.4v-9.8c0-0.1,0-0.1,0-0.2c10.1-8.6,14.5-9.8,15-17.2c0-0.2,0-0.5,0-0.7L54.5,65z"
	/>
<line class="st3" x1="78.7" y1="36.2" x2="78.7" y2="39.2"/>
<g>
	<path class="st4" d="M79.7,35.8"/>
	<path class="st4" d="M80.6,30.9c1.7-3.6,5.2-6.1,9.4-6.1c1.3,0,2.3,0.2,3.4,0.6l0,0.1c0,0.1,0,0.1,0,0.2c0,5.9-4.5,10.7-10.3,10.7
		c-1.3,0-3.2-0.1-4.3-0.5c-1.1,0.4-2.9,0.5-4.2,0.5c-5.7,0-10.4-4.8-10.4-10.7c0-0.1,0-0.2,0-0.4l0.2-0.1c1.1-0.4,2.1-0.6,3.3-0.6
		c4.1,0,7.7,2.5,9.4,6.1"/>
	<path class="st4" d="M73.9,20.9c1.3-3.1,5.2-5.8,5.2-5.8s3.8,2.7,5.1,5.8"/>
	<path class="st4" d="M74.5,26.9c1.5-2.5,4.5-4.4,4.5-4.4s3.1,1.9,4.6,4.5"/>
	<path class="st4" d="M67.1,24.8c0.3-2,1.3-4,3.1-5.6c0.1-0.1,0.2-0.1,0.3-0.2l0.2,0.1c1.1,0.5,2,1,2.9,1.8c0.2,0.2,0.4,0.4,0.6,0.6
		"/>
	<path class="st4" d="M91,24.8c-0.3-2-1.3-4-3.1-5.6c-0.1-0.1-0.2-0.1-0.3-0.2l-0.2,0.1c-1.1,0.5-2,1-2.9,1.8
		c-0.2,0.2-0.4,0.4-0.6,0.6"/>
	<path class="st4" d="M76,15.4c0.9-2,3.4-3.8,3.4-3.8s2.5,1.8,3.4,3.8"/>
	<path class="st4" d="M71.5,18c0.2-1.3,0.9-2.6,2-3.7c0.1,0,0.1-0.1,0.2-0.1l0.1,0.1c0.7,0.3,1.3,0.7,1.9,1.2
		c0.1,0.1,0.3,0.2,0.4,0.4"/>
	<path class="st4" d="M87.2,18c-0.2-1.3-0.9-2.6-2-3.7c-0.1,0-0.1-0.1-0.2-0.1l-0.1,0.1c-0.7,0.3-1.3,0.7-1.9,1.2
		c-0.1,0.1-0.3,0.3-0.4,0.4"/>
</g>
<circle class="st5" cx="78.9" cy="25.5" r="23.5"/>
<g>
	<g>
		<path class="st6" d="M48.4,25.8h-9.2c-6,0-10.8,4.8-10.8,10.8v7.7"/>
		<g>
			<polygon class="st7" points="25.4,43.5 28.4,48.6 31.3,43.5 			"/>
		</g>
	</g>
</g>
</svg>
